<svg width="187" height="71" viewBox="0 0 187 71" fill="none" xmlns="http://www.w3.org/2000/svg">
<path d="M39.0392 40.4165L38.9432 40.5338C38.8721 40.605 38.7512 40.6974 38.5805 40.8112C38.417 40.9178 38.2179 41.0281 37.9832 41.1418C37.7557 41.2485 37.4499 41.3374 37.0659 41.4085C36.6819 41.4867 36.2694 41.5258 35.8285 41.5258C34.897 41.5258 34.1005 41.373 33.4392 41.0672C32.7779 40.7543 32.2588 40.3027 31.8819 39.7125C31.5121 39.1152 31.2454 38.4432 31.0819 37.6965C30.9183 36.9427 30.8365 36.0716 30.8365 35.0832C30.8365 34.0307 30.9183 33.1241 31.0819 32.3632C31.2454 31.5952 31.5157 30.9232 31.8925 30.3472C32.2765 29.7641 32.8028 29.3267 33.4712 29.0352C34.1397 28.7436 34.9539 28.5978 35.9139 28.5978C36.3548 28.5978 36.7672 28.637 37.1512 28.7152C37.5423 28.7934 37.8481 28.8823 38.0685 28.9818C38.2961 29.0814 38.4988 29.1952 38.6765 29.3232C38.8614 29.4512 38.9752 29.5401 39.0179 29.5898C39.0677 29.6396 39.1032 29.6787 39.1245 29.7072L38.9645 32.1605H37.3432L36.7885 30.8912C36.6605 30.8556 36.5539 30.8378 36.4685 30.8378C35.9921 30.8378 35.6259 30.9481 35.3699 31.1685C35.1139 31.3818 34.9183 31.805 34.7832 32.4378C34.6481 33.0636 34.5805 33.9667 34.5805 35.1472C34.5805 35.8512 34.6232 36.4663 34.7085 36.9925C34.801 37.5187 34.9112 37.9241 35.0392 38.2085C35.1672 38.4858 35.3201 38.7098 35.4979 38.8805C35.6757 39.0512 35.8357 39.1614 35.9779 39.2112C36.1201 39.2538 36.273 39.2752 36.4365 39.2752C36.7992 39.2752 37.1797 39.2325 37.5779 39.1472C37.9761 39.0547 38.3032 38.9161 38.5592 38.7312L39.0392 40.4165ZM45.995 40.2458C46.3079 40.2458 46.5461 40.1178 46.7096 39.8618C46.8803 39.5987 46.9656 39.2396 46.9656 38.7845V35.4138C46.9656 34.0272 46.6385 33.3338 45.9843 33.3338C45.6785 33.3338 45.4403 33.4583 45.2696 33.7072C45.099 33.9561 45.0136 34.3081 45.0136 34.7632V38.2298C45.0136 39.5738 45.3407 40.2458 45.995 40.2458ZM45.9096 41.5258C44.2812 41.5258 43.0901 41.1561 42.3363 40.4165C41.5825 39.677 41.2056 38.4965 41.2056 36.8752C41.2056 35.2681 41.5861 34.0592 42.347 33.2485C43.1079 32.4307 44.3452 32.0218 46.059 32.0218C47.7301 32.0218 48.9354 32.413 49.675 33.1952C50.4216 33.9703 50.795 35.1472 50.795 36.7258C50.795 38.3614 50.4003 39.5703 49.611 40.3525C48.8287 41.1347 47.595 41.5258 45.9096 41.5258ZM59.5196 41.3018L59.1036 39.9258C59.0467 40.0254 58.9792 40.125 58.901 40.2245C58.8299 40.3241 58.7125 40.4521 58.549 40.6085C58.3854 40.7578 58.2112 40.8894 58.0263 41.0032C57.8414 41.117 57.6103 41.2165 57.333 41.3018C57.0556 41.3872 56.7641 41.4298 56.4583 41.4298C55.285 41.4298 54.4245 41.0281 53.877 40.2245C53.3294 39.421 53.0556 38.3045 53.0556 36.8752C53.0556 35.9792 53.1836 35.1827 53.4396 34.4858C53.6956 33.7818 54.0974 33.2165 54.645 32.7898C55.1925 32.3632 55.8539 32.1498 56.629 32.1498C57.0912 32.1498 57.5036 32.1996 57.8663 32.2992C58.229 32.3987 58.5419 32.5196 58.805 32.6618V29.4298L57.6316 29.0352V27.8618L61.4076 27.3285H62.2396V41.3018H59.5196ZM58.0156 39.3392C58.1436 39.3392 58.2752 39.3178 58.4103 39.2752C58.5454 39.2254 58.677 39.1578 58.805 39.0725V33.7072C58.5845 33.6574 58.3819 33.6325 58.197 33.6325C57.2512 33.6396 56.7747 34.3685 56.7676 35.8192V37.3125C56.7676 37.981 56.885 38.4858 57.1196 38.8272C57.3543 39.1685 57.653 39.3392 58.0156 39.3392ZM70.0713 35.7872C70.0713 34.8841 70.0251 34.2441 69.9326 33.8672C69.8402 33.4903 69.6695 33.3018 69.4206 33.3018C69.2073 33.3018 69.0331 33.341 68.898 33.4192C68.7629 33.4903 68.6633 33.6076 68.5993 33.7712C68.5353 33.9276 68.4926 34.0912 68.4713 34.2618C68.4571 34.4254 68.45 34.6352 68.45 34.8912V35.7872H70.0713ZM69.218 41.5258C68.4215 41.5258 67.7282 41.405 67.138 41.1632C66.5549 40.9214 66.0926 40.5836 65.7513 40.1498C65.4171 39.7161 65.1717 39.229 65.0153 38.6885C64.8589 38.141 64.7806 37.533 64.7806 36.8645C64.7806 35.2716 65.186 34.0663 65.9966 33.2485C66.8073 32.4307 67.9415 32.0218 69.3993 32.0218C70.8002 32.0218 71.8029 32.3525 72.4073 33.0138C73.0117 33.6681 73.314 34.7241 73.314 36.1818V37.3658H68.4393V37.5685C68.4393 37.9881 68.482 38.333 68.5673 38.6032C68.6597 38.8734 68.7913 39.0725 68.962 39.2005C69.1326 39.3285 69.3069 39.4138 69.4846 39.4565C69.6624 39.4992 69.8793 39.5205 70.1353 39.5205C70.3842 39.5205 70.6509 39.4885 70.9353 39.4245C71.2269 39.3605 71.5184 39.261 71.81 39.1258C72.1086 38.9907 72.3575 38.8307 72.5566 38.6458L73.186 39.7232C72.9229 40.1498 72.5353 40.509 72.0233 40.8005C71.5184 41.085 71.0313 41.277 70.562 41.3765C70.0926 41.4761 69.6446 41.5258 69.218 41.5258ZM83.8455 40.4165L83.7495 40.5338C83.6784 40.605 83.5575 40.6974 83.3868 40.8112C83.2232 40.9178 83.0241 41.0281 82.7895 41.1418C82.5619 41.2485 82.2561 41.3374 81.8721 41.4085C81.4881 41.4867 81.0757 41.5258 80.6348 41.5258C79.7032 41.5258 78.9068 41.373 78.2455 41.0672C77.5841 40.7543 77.065 40.3027 76.6881 39.7125C76.3184 39.1152 76.0517 38.4432 75.8881 37.6965C75.7246 36.9427 75.6428 36.0716 75.6428 35.0832C75.6428 34.0307 75.7246 33.1241 75.8881 32.3632C76.0517 31.5952 76.3219 30.9232 76.6988 30.3472C77.0828 29.7641 77.609 29.3267 78.2775 29.0352C78.9459 28.7436 79.7601 28.5978 80.7201 28.5978C81.161 28.5978 81.5735 28.637 81.9575 28.7152C82.3486 28.7934 82.6544 28.8823 82.8748 28.9818C83.1024 29.0814 83.305 29.1952 83.4828 29.3232C83.6677 29.4512 83.7815 29.5401 83.8241 29.5898C83.8739 29.6396 83.9095 29.6787 83.9308 29.7072L83.7708 32.1605H82.1495L81.5948 30.8912C81.4668 30.8556 81.3601 30.8378 81.2748 30.8378C80.7984 30.8378 80.4321 30.9481 80.1761 31.1685C79.9201 31.3818 79.7246 31.805 79.5895 32.4378C79.4544 33.0636 79.3868 33.9667 79.3868 35.1472C79.3868 35.8512 79.4295 36.4663 79.5148 36.9925C79.6072 37.5187 79.7175 37.9241 79.8455 38.2085C79.9735 38.4858 80.1264 38.7098 80.3041 38.8805C80.4819 39.0512 80.6419 39.1614 80.7841 39.2112C80.9264 39.2538 81.0792 39.2752 81.2428 39.2752C81.6055 39.2752 81.9859 39.2325 82.3841 39.1472C82.7824 39.0547 83.1095 38.9161 83.3655 38.7312L83.8455 40.4165ZM90.8012 40.2458C91.1141 40.2458 91.3523 40.1178 91.5159 39.8618C91.6865 39.5987 91.7719 39.2396 91.7719 38.7845V35.4138C91.7719 34.0272 91.4448 33.3338 90.7905 33.3338C90.4848 33.3338 90.2465 33.4583 90.0759 33.7072C89.9052 33.9561 89.8199 34.3081 89.8199 34.7632V38.2298C89.8199 39.5738 90.147 40.2458 90.8012 40.2458ZM90.7159 41.5258C89.0874 41.5258 87.8963 41.1561 87.1425 40.4165C86.3888 39.677 86.0119 38.4965 86.0119 36.8752C86.0119 35.2681 86.3923 34.0592 87.1532 33.2485C87.9141 32.4307 89.1514 32.0218 90.8652 32.0218C92.5363 32.0218 93.7417 32.413 94.4812 33.1952C95.2279 33.9703 95.6012 35.1472 95.6012 36.7258C95.6012 38.3614 95.2065 39.5703 94.4172 40.3525C93.635 41.1347 92.4012 41.5258 90.7159 41.5258ZM101.809 41.3018H98.3632V34.4005L97.7232 34.0058V32.8645L100.017 32.2352H101.83V33.6112C101.865 33.5614 101.915 33.4974 101.979 33.4192C102.05 33.3338 102.178 33.2023 102.363 33.0245C102.548 32.8467 102.737 32.6903 102.929 32.5552C103.128 32.4201 103.366 32.2992 103.643 32.1925C103.928 32.0787 104.209 32.0218 104.486 32.0218C105.197 32.0218 105.741 32.157 106.118 32.4272C106.495 32.6974 106.761 33.1383 106.918 33.7498C107.16 33.3303 107.529 32.9392 108.027 32.5765C108.532 32.2067 109.087 32.0218 109.691 32.0218C110.36 32.0218 110.879 32.1392 111.249 32.3738C111.625 32.6014 111.899 32.9925 112.07 33.5472C112.241 34.1018 112.326 34.8841 112.326 35.8938V41.3018H108.859V35.5845C108.859 35.2716 108.785 35.0263 108.635 34.8485C108.486 34.6707 108.258 34.5818 107.953 34.5818C107.746 34.5818 107.465 34.7525 107.11 35.0938C107.131 35.4352 107.142 35.805 107.142 36.2032V41.3018H103.622V35.5845C103.643 34.9161 103.359 34.5818 102.769 34.5818C102.726 34.5818 102.683 34.5854 102.641 34.5925C102.605 34.5996 102.569 34.6067 102.534 34.6138C102.505 34.621 102.47 34.6352 102.427 34.6565C102.392 34.6707 102.36 34.685 102.331 34.6992C102.303 34.7063 102.271 34.7241 102.235 34.7525C102.2 34.7738 102.171 34.7916 102.15 34.8058C102.129 34.8201 102.097 34.845 102.054 34.8805C102.018 34.909 101.99 34.9303 101.969 34.9445C101.954 34.9587 101.926 34.9836 101.883 35.0192C101.848 35.0476 101.823 35.069 101.809 35.0832V41.3018ZM120.737 41.3018C120.325 41.3018 119.948 41.2592 119.606 41.1738C119.265 41.0885 118.966 40.9818 118.71 40.8538V44.5232H115.276V34.4005L114.636 34.0058V32.8645L116.929 32.2352H118.71V32.9498C118.966 32.6867 119.276 32.4663 119.638 32.2885C120.001 32.1107 120.424 32.0218 120.908 32.0218C122.081 32.0218 122.941 32.4236 123.489 33.2272C124.044 34.0307 124.321 35.1436 124.321 36.5658C124.321 37.2343 124.246 37.853 124.097 38.4218C123.948 38.9836 123.727 39.4814 123.436 39.9152C123.144 40.349 122.767 40.6903 122.305 40.9392C121.85 41.181 121.327 41.3018 120.737 41.3018ZM119.169 39.8192C120.122 39.8192 120.598 39.0903 120.598 37.6325V35.8192C120.598 35.1792 120.488 34.7027 120.268 34.3898C120.054 34.077 119.777 33.9205 119.436 33.9205C119.201 33.9205 118.959 33.9916 118.71 34.1338V39.7658C118.796 39.7872 118.874 39.8014 118.945 39.8085C119.023 39.8156 119.098 39.8192 119.169 39.8192ZM127.04 41.3018V29.2378L126.4 28.8538V27.8618L129.824 27.3285H130.517V41.3018H127.04ZM138.328 35.7872C138.328 34.8841 138.281 34.2441 138.189 33.8672C138.096 33.4903 137.926 33.3018 137.677 33.3018C137.464 33.3018 137.289 33.341 137.154 33.4192C137.019 33.4903 136.92 33.6076 136.856 33.7712C136.792 33.9276 136.749 34.0912 136.728 34.2618C136.713 34.4254 136.706 34.6352 136.706 34.8912V35.7872H138.328ZM137.474 41.5258C136.678 41.5258 135.984 41.405 135.394 41.1632C134.811 40.9214 134.349 40.5836 134.008 40.1498C133.673 39.7161 133.428 39.229 133.272 38.6885C133.115 38.141 133.037 37.533 133.037 36.8645C133.037 35.2716 133.442 34.0663 134.253 33.2485C135.064 32.4307 136.198 32.0218 137.656 32.0218C139.056 32.0218 140.059 32.3525 140.664 33.0138C141.268 33.6681 141.57 34.7241 141.57 36.1818V37.3658H136.696V37.5685C136.696 37.9881 136.738 38.333 136.824 38.6032C136.916 38.8734 137.048 39.0725 137.218 39.2005C137.389 39.3285 137.563 39.4138 137.741 39.4565C137.919 39.4992 138.136 39.5205 138.392 39.5205C138.64 39.5205 138.907 39.4885 139.192 39.4245C139.483 39.3605 139.775 39.261 140.066 39.1258C140.365 38.9907 140.614 38.8307 140.813 38.6458L141.442 39.7232C141.179 40.1498 140.792 40.509 140.28 40.8005C139.775 41.085 139.288 41.277 138.818 41.3765C138.349 41.4761 137.901 41.5258 137.474 41.5258ZM146.822 41.5258C145.862 41.5258 145.19 41.2378 144.806 40.6618C144.429 40.0858 144.24 39.1116 144.24 37.7392V34.1125H143.504V32.6298L144.763 32.2352L145.851 29.7498H147.728V32.2352H149.478V34.1125H147.696V38.0805C147.696 38.6494 147.778 39.0263 147.942 39.2112C148.105 39.3961 148.358 39.4885 148.699 39.4885C148.848 39.4885 148.983 39.4707 149.104 39.4352C149.225 39.3996 149.325 39.3498 149.403 39.2858V40.7365C149.296 40.8432 149.158 40.9498 148.987 41.0565C148.816 41.1561 148.532 41.2592 148.134 41.3658C147.743 41.4725 147.305 41.5258 146.822 41.5258ZM156.809 35.7872C156.809 34.8841 156.763 34.2441 156.67 33.8672C156.578 33.4903 156.407 33.3018 156.158 33.3018C155.945 33.3018 155.771 33.341 155.635 33.4192C155.5 33.4903 155.401 33.6076 155.337 33.7712C155.273 33.9276 155.23 34.0912 155.209 34.2618C155.195 34.4254 155.187 34.6352 155.187 34.8912V35.7872H156.809ZM155.955 41.5258C155.159 41.5258 154.466 41.405 153.875 41.1632C153.292 40.9214 152.83 40.5836 152.489 40.1498C152.155 39.7161 151.909 39.229 151.753 38.6885C151.596 38.141 151.518 37.533 151.518 36.8645C151.518 35.2716 151.923 34.0663 152.734 33.2485C153.545 32.4307 154.679 32.0218 156.137 32.0218C157.538 32.0218 158.54 32.3525 159.145 33.0138C159.749 33.6681 160.051 34.7241 160.051 36.1818V37.3658H155.177V37.5685C155.177 37.9881 155.219 38.333 155.305 38.6032C155.397 38.8734 155.529 39.0725 155.699 39.2005C155.87 39.3285 156.044 39.4138 156.222 39.4565C156.4 39.4992 156.617 39.5205 156.873 39.5205C157.122 39.5205 157.388 39.4885 157.673 39.4245C157.964 39.3605 158.256 39.261 158.547 39.1258C158.846 38.9907 159.095 38.8307 159.294 38.6458L159.923 39.7232C159.66 40.1498 159.273 40.509 158.761 40.8005C158.256 41.085 157.769 41.277 157.299 41.3765C156.83 41.4761 156.382 41.5258 155.955 41.5258Z" fill="white"/>
<path d="M6.82751 35.5031C6.82751 43.1083 9.84868 50.402 15.2264 55.7797L25.3749 45.6313C22.6887 42.9451 21.1796 39.3019 21.1796 35.5031L6.82751 35.5031Z" fill="#FACC89"/>
<path d="M55.7797 15.2264C50.402 9.84868 43.1083 6.82751 35.5031 6.82751L35.5031 21.1796C39.3019 21.1796 42.9451 22.6887 45.6313 25.3749L55.7797 15.2264Z" fill="#1C96D5"/>
<path d="M10.3986 60.6075C13.6954 63.9043 17.6092 66.5194 21.9166 68.3036C26.2241 70.0878 30.8407 71.0061 35.5031 71.0061L35.5031 49.7183C33.6363 49.7183 31.7878 49.3506 30.0631 48.6362C28.3385 47.9218 26.7714 46.8748 25.4514 45.5548L10.3986 60.6075Z" fill="#D9D9D9"/>
<path d="M10.3986 60.6075C13.6954 63.9043 17.6092 66.5194 21.9166 68.3036C26.2241 70.0878 30.8407 71.0061 35.5031 71.0061L35.5031 49.7183C33.6363 49.7183 31.7878 49.3506 30.0631 48.6362C28.3385 47.9218 26.7714 46.8748 25.4514 45.5548L10.3986 60.6075Z" fill="#FFFCD2"/>
<path d="M35.5031 71.0061C40.1654 71.0061 44.7821 70.0878 49.0895 68.3036C53.3969 66.5194 57.3108 63.9043 60.6075 60.6075L45.5548 45.5548C44.2347 46.8748 42.6677 47.9218 40.943 48.6362C39.2183 49.3506 37.3698 49.7183 35.5031 49.7183L35.5031 71.0061Z" fill="#E9ED99"/>
<path d="M10.3986 10.3986C7.10184 13.6954 4.4867 17.6092 2.70251 21.9166C0.918313 26.2241 -7.03992e-07 30.8407 0 35.5031L21.2878 35.5031C21.2878 33.6363 21.6555 31.7878 22.3699 30.0631C23.0843 28.3385 24.1314 26.7714 25.4514 25.4514L10.3986 10.3986Z" fill="#FCEDF4"/>
<path d="M35.5031 0C30.8407 -5.55977e-08 26.2241 0.918314 21.9166 2.70251C17.6092 4.48671 13.6954 7.10184 10.3986 10.3986L25.4514 25.4514C26.7714 24.1314 28.3385 23.0843 30.0631 22.3699C31.7878 21.6555 33.6363 21.2878 35.5031 21.2878L35.5031 0Z" fill="#FEF9FB"/>
<path d="M6.82751 35.5031C6.82751 39.2688 7.56923 42.9976 9.01031 46.4767C10.4514 49.9558 12.5636 53.117 15.2264 55.7797L17.3937 53.6125C15.0155 51.2343 13.129 48.411 11.842 45.3038C10.5549 42.1966 9.8925 38.8663 9.8925 35.5031L6.82751 35.5031Z" fill="#F49B07"/>
<path d="M55.7797 15.2264C53.117 12.5636 49.9558 10.4514 46.4767 9.01031C42.9976 7.56923 39.2688 6.82751 35.5031 6.82751L35.5031 9.8925C38.8663 9.8925 42.1966 10.5549 45.3038 11.842C48.411 13.129 51.2343 15.0155 53.6125 17.3937L55.7797 15.2264Z" fill="#0068B7"/>
<path d="M35.5031 0C30.8407 -5.55977e-08 26.2241 0.918314 21.9166 2.70251C17.6092 4.48671 13.6954 7.10184 10.3986 10.3986L22.2925 22.2925C24.0274 20.5577 26.0869 19.1816 28.3536 18.2427C30.6202 17.3038 33.0496 16.8206 35.5031 16.8206L35.5031 0Z" fill="#FCF2F7"/>
<path d="M35.5031 71.0061C40.1654 71.0061 44.7821 70.0878 49.0895 68.3036C53.3969 66.5194 57.3108 63.9043 60.6075 60.6075L48.7136 48.7136C46.9788 50.4484 44.9192 51.8246 42.6525 52.7634C40.3859 53.7023 37.9565 54.1856 35.5031 54.1856L35.5031 71.0061Z" fill="#CDE299"/>
<path d="M10.3986 10.3986C7.10184 13.6954 4.4867 17.6092 2.70251 21.9166C0.918313 26.2241 -7.03992e-07 30.8407 0 35.5031L16.8206 35.5031C16.8206 33.0496 17.3038 30.6203 18.2427 28.3536C19.1816 26.0869 20.5577 24.0274 22.2925 22.2925L10.3986 10.3986Z" fill="#F7C7DC"/>
<path d="M35.5031 71.0061C40.1654 71.0061 44.7821 70.0878 49.0895 68.3036C53.3969 66.5194 57.3108 63.9043 60.6075 60.6075L50.7953 50.7953C48.7871 52.8035 46.403 54.3965 43.7792 55.4833C41.1553 56.5701 38.3431 57.1295 35.5031 57.1295L35.5031 71.0061Z" fill="#8AC998"/>
<path d="M10.3986 10.3986C7.10184 13.6954 4.4867 17.6092 2.70251 21.9166C0.918313 26.2241 -7.03992e-07 30.8407 0 35.5031L13.8766 35.5031C13.8766 32.663 14.436 29.8508 15.5228 27.227C16.6097 24.6031 18.2027 22.2191 20.2109 20.2109L10.3986 10.3986Z" fill="#ED81B0"/>
<path d="M35.5031 0C30.8407 -5.55977e-08 26.2241 0.918314 21.9166 2.70251C17.6092 4.48671 13.6954 7.10184 10.3986 10.3986L20.2109 20.2109C22.2191 18.2027 24.6031 16.6097 27.227 15.5228C29.8508 14.436 32.663 13.8766 35.5031 13.8766L35.5031 0Z" fill="#FBE4EF"/>
<path d="M10.3986 60.6075C13.6954 63.9043 17.6092 66.5194 21.9166 68.3036C26.2241 70.0878 30.8407 71.0061 35.5031 71.0061L35.5031 61.0474C32.1485 61.0474 28.8268 60.3867 25.7277 59.103C22.6285 57.8193 19.8125 55.9377 17.4405 53.5657L10.3986 60.6075Z" fill="#FFF899"/>
<path d="M35.5031 0C30.8407 -5.55977e-08 26.2241 0.918314 21.9166 2.70251C17.6092 4.48671 13.6954 7.10184 10.3986 10.3986L17.4405 17.4405C19.8125 15.0684 22.6285 13.1869 25.7277 11.9031C28.8268 10.6194 32.1485 9.95869 35.5031 9.95869L35.5031 0Z" fill="#F7C6DB"/>
<path d="M10.3986 60.6075C13.6954 63.9043 17.6092 66.5194 21.9166 68.3036C26.2241 70.0878 30.8407 71.0061 35.5031 71.0061L35.5031 63.2598C31.858 63.2598 28.2486 62.5419 24.881 61.147C21.5134 59.7521 18.4535 57.7075 15.8761 55.1301L10.3986 60.6075Z" fill="#8AC998"/>
<path d="M35.5031 0C30.8407 -5.55977e-08 26.2241 0.918314 21.9166 2.70251C17.6092 4.48671 13.6954 7.10184 10.3986 10.3986L15.7463 15.7463C18.3408 13.1518 21.4209 11.0937 24.8108 9.68958C28.2006 8.28545 31.8339 7.56275 35.5031 7.56275L35.5031 0Z" fill="#ED81B0"/>
<path d="M35.5031 0C30.8407 -5.55977e-08 26.2241 0.918314 21.9166 2.70251C17.6092 4.48671 13.6954 7.10184 10.3986 10.3986C7.10184 13.6954 4.4867 17.6092 2.70251 21.9166C0.918313 26.2241 -7.03992e-07 30.8407 0 35.5031L2.96578 35.5031C2.96578 31.2302 3.80738 26.9992 5.44253 23.0516C7.07769 19.104 9.47436 15.5171 12.4957 12.4957C15.5171 9.47437 19.104 7.07769 23.0516 5.44254C26.9992 3.80738 31.2302 2.96578 35.5031 2.96578L35.5031 0Z" fill="#E4007F"/>
<path d="M10.3986 60.6075C13.6954 63.9043 17.6092 66.5194 21.9166 68.3036C26.2241 70.0878 30.8407 71.0061 35.5031 71.0061C40.1654 71.0061 44.7821 70.0878 49.0895 68.3036C53.3969 66.5194 57.3108 63.9043 60.6075 60.6075L58.5104 58.5104C55.489 61.5318 51.9022 63.9284 47.9546 65.5636C44.0069 67.1987 39.7759 68.0404 35.5031 68.0404C31.2302 68.0404 26.9992 67.1988 23.0516 65.5636C19.104 63.9284 15.5171 61.5318 12.4957 58.5104L10.3986 60.6075Z" fill="#009944"/>
</svg>
