<svg width="34" height="34" viewBox="0 0 34 34" fill="none" xmlns="http://www.w3.org/2000/svg">
<path d="M3.53174 18.95C4.00269 22.186 5.62296 25.1442 8.09612 27.2834C10.5693 29.4227 13.73 30.6 17 30.6C20.27 30.6 23.4307 29.4227 25.9039 27.2834C28.377 25.1442 29.9973 22.186 30.4683 18.95M17.0019 3.40002C15.4554 3.40002 13.9722 4.01439 12.8786 5.10796C11.785 6.20153 11.1707 7.68474 11.1707 9.23128V17.0063C11.1707 18.5528 11.785 20.036 12.8786 21.1296C13.9722 22.2232 15.4554 22.8375 17.0019 22.8375C18.5485 22.8375 20.0317 22.2232 21.1253 21.1296C22.2188 20.036 22.8332 18.5528 22.8332 17.0063V9.23128C22.8332 7.68474 22.2188 6.20153 21.1253 5.10796C20.0317 4.01439 18.5485 3.40002 17.0019 3.40002Z" stroke="white" stroke-width="3" stroke-linecap="round" stroke-linejoin="round"/>
</svg>
