<svg width="22" height="22" viewBox="0 0 22 22" fill="none" xmlns="http://www.w3.org/2000/svg">
<path d="M17.9 10.7002V7.70022M17.9 7.70022V4.70022M17.9 7.70022L20.9 7.70022M17.9 7.70022H14.9M13.1 4.70022V2.90022M13.1 2.90022V1.10022M13.1 2.90022L14.9 2.90022M13.1 2.90022L11.3 2.90022M20.2999 13.9396C19.3976 14.2133 18.4403 14.3604 17.4487 14.3604C12.0307 14.3604 7.63851 9.96825 7.63851 4.55025C7.63851 3.55903 7.78552 2.60215 8.05892 1.70022C4.03148 2.9216 1.09998 6.66326 1.09998 11.0896C1.09998 16.5076 5.49213 20.8998 10.9101 20.8998C15.3369 20.8998 19.0789 17.9677 20.2999 13.9396Z" stroke="white" stroke-width="2" stroke-linecap="round" stroke-linejoin="round"/>
</svg>
