<svg width="36" height="32" viewBox="0 0 36 32" fill="none" xmlns="http://www.w3.org/2000/svg">
<path d="M24.5808 8.67072L12.7837 3.5095C7.06019 1.00545 4.19842 -0.24658 2.63885 0.382874C1.49348 0.845153 0.625918 1.81064 0.288289 2.99874C-0.171436 4.61649 1.37834 7.32859 4.47788 12.7528L4.47789 12.7528C5.17939 13.9804 5.53014 14.5942 5.65529 15.249C5.75012 15.7452 5.75012 16.2548 5.65529 16.7509C5.53014 17.4057 5.17939 18.0195 4.47789 19.2471C1.37834 24.6714 -0.171437 27.3835 0.288289 29.0012C0.625918 30.1893 1.49348 31.1548 2.63885 31.6171C4.19842 32.2465 7.0602 30.9945 12.7837 28.4905L24.5808 23.3292L24.5808 23.3292C31.7628 20.1871 35.3538 18.616 35.3538 16C35.3538 13.3839 31.7628 11.8129 24.5808 8.67072Z" fill="white"/>
</svg>
